<svg width="198" height="40" viewBox="0 0 198 40" fill="none" xmlns="http://www.w3.org/2000/svg">
<path d="M40 0H0V40H40V0Z" fill="#FFC501"/>
<path d="M11.6641 6.66797V16.668H28.3321V6.66797L11.6641 6.66797Z" fill="black"/>
<path d="M20 16.668C15.396 16.668 11.668 20.4 11.668 25C11.668 29.604 15.4 33.332 20 33.332C24.604 33.332 28.332 29.6 28.332 25H20V16.668Z" fill="black"/>
<path d="M54.7089 13.2798H47.999V8.42383H67.1972V13.2798H60.4228V33.5758L54.7129 31.5998V13.2798H54.7089Z" fill="white"/>
<path d="M64.3904 23.3209C64.3904 18.3329 67.9389 14.5449 73.2294 14.5449C78.5199 14.5449 82.0401 18.3329 82.0401 23.3209C82.0401 28.3089 78.5561 32.0969 73.2294 32.0969C67.9026 32.0969 64.3904 28.3089 64.3904 23.3209ZM76.7174 23.3209C76.7174 20.3089 75.4915 18.2689 73.2011 18.2689C70.9107 18.2689 69.7172 20.3089 69.7172 23.3209C69.7172 26.3329 70.9107 28.3409 73.2011 28.3409C75.4915 28.3409 76.7174 26.3329 76.7174 23.3209Z" fill="white"/>
<path d="M81.8477 14.9961H87.2027L89.0092 21.8601C89.364 23.1881 89.7511 25.0681 89.7511 25.0681H89.8156C89.8156 25.0681 90.2027 23.1561 90.5576 21.7641L92.2996 14.9961H96.7513L98.5578 21.7641C98.9127 23.1881 99.3321 25.1001 99.3321 25.1001H99.3966C99.3966 25.1001 99.816 23.1881 100.171 21.8601L102.01 14.9961H107.203L102.139 31.5761H97.203L95.2674 24.0641C94.9126 22.7681 94.5577 21.0841 94.5577 21.0841H94.4932C94.4932 21.0841 94.1061 22.7681 93.7513 24.0641L91.7834 31.5761H86.9123L81.8477 14.9961Z" fill="white"/>
<path d="M110.367 27.2045V18.3005H108.174V14.9965H110.367V7.72852L115.496 9.75252V14.9965H118.496V18.3005H115.496V26.0725C115.496 27.3685 116.206 27.6925 117.335 27.6925C117.787 27.6925 118.303 27.6605 118.496 27.6605V31.5125C118.045 31.6405 117.045 31.7725 115.625 31.7725C112.561 31.7725 110.367 30.7685 110.367 27.2085V27.2045Z" fill="white"/>
<path d="M119.953 26.9449C119.953 23.2849 122.856 22.1849 126.276 21.7329C129.373 21.3449 130.47 21.0209 130.47 19.8889C130.47 18.8209 129.792 18.1089 128.211 18.1089C126.534 18.1089 125.695 18.8529 125.534 20.2449H120.695C120.824 17.1689 123.179 14.5449 128.179 14.5449C130.663 14.5449 132.341 14.9969 133.534 15.9049C134.954 16.9409 135.631 18.5609 135.631 20.6329V28.9889C135.631 30.3169 135.76 31.0609 136.212 31.3529V31.5809H131.115C130.857 31.2249 130.695 30.5769 130.566 29.7369H130.502C129.534 31.1289 128.082 32.0049 125.598 32.0049C122.308 32.0049 119.953 30.2249 119.953 26.9529V26.9449ZM130.603 25.6489V23.6729C129.925 24.0289 128.957 24.2889 127.893 24.5489C125.861 25.0009 125.022 25.5209 125.022 26.7849C125.022 28.1129 125.99 28.6289 127.28 28.6289C129.248 28.6289 130.603 27.4289 130.603 25.6489Z" fill="white"/>
<path d="M137.441 23.3209C137.441 18.3329 140.861 14.5449 146.091 14.5449C150.575 14.5449 153.446 17.1689 153.93 20.8929H148.865C148.543 19.4049 147.639 18.4329 146.155 18.4329C143.897 18.4329 142.768 20.3089 142.768 23.3209C142.768 26.3329 143.897 28.1449 146.155 28.1449C147.801 28.1449 148.801 27.1729 149.026 25.2969H154.059C153.93 29.1169 150.897 32.0969 146.22 32.0969C140.897 32.0969 137.441 28.3089 137.441 23.3209Z" fill="white"/>
<path d="M155.735 6.40039L160.929 8.42439V20.6004L165.832 15.0004H171.897L166.091 21.2164L172.575 31.5764H166.478L162.51 24.8084L160.929 26.4924V31.5764H155.735V6.40039Z" fill="white"/>
<path d="M173.834 6.40039L179.156 8.42439V31.5764H173.834V6.40039Z" fill="white"/>
<path d="M180.966 23.2557C180.966 18.2997 184.418 14.5117 189.45 14.5117C191.805 14.5117 193.676 15.2877 195.095 16.5837C197.063 18.3957 198.031 21.2797 197.999 24.6477H186.123C186.446 26.8837 187.672 28.2757 189.833 28.2757C191.22 28.2757 192.124 27.6597 192.575 26.6237H197.704C197.35 28.1117 196.382 29.5397 194.93 30.5397C193.543 31.5117 191.865 32.0637 189.769 32.0637C184.317 32.0637 180.962 28.2757 180.962 23.2557H180.966ZM192.68 21.5077C192.486 19.5317 191.261 18.2677 189.551 18.2677C187.551 18.2677 186.519 19.5317 186.164 21.5077H192.68Z" fill="white"/>
</svg>
